<mxfile host="65bd71144e">
    <diagram id="ZHKhdvdz1ePJG2LK-lVP" name="Page-1">
        <mxGraphModel dx="2349" dy="1646" grid="1" gridSize="10" guides="1" tooltips="1" connect="1" arrows="1" fold="1" page="1" pageScale="1" pageWidth="850" pageHeight="1100" math="0" shadow="0">
            <root>
                <mxCell id="0"/>
                <mxCell id="1" parent="0"/>
                <mxCell id="7" value="" style="edgeStyle=none;html=1;" parent="1" source="2" target="4" edge="1">
                    <mxGeometry relative="1" as="geometry"/>
                </mxCell>
                <mxCell id="2" value="inicio" style="strokeWidth=2;html=1;shape=mxgraph.flowchart.start_1;whiteSpace=wrap;" parent="1" vertex="1">
                    <mxGeometry x="265" y="90" width="100" height="60" as="geometry"/>
                </mxCell>
                <mxCell id="8" value="" style="edgeStyle=none;html=1;" parent="1" source="4" target="5" edge="1">
                    <mxGeometry relative="1" as="geometry"/>
                </mxCell>
                <mxCell id="13" value="" style="edgeStyle=none;html=1;entryX=0.5;entryY=0;entryDx=0;entryDy=0;exitX=1;exitY=0.5;exitDx=0;exitDy=0;" parent="1" source="4" target="12" edge="1">
                    <mxGeometry relative="1" as="geometry">
                        <mxPoint x="369" y="209" as="sourcePoint"/>
                        <Array as="points">
                            <mxPoint x="410" y="220"/>
                            <mxPoint x="410" y="160"/>
                            <mxPoint x="460" y="160"/>
                            <mxPoint x="550" y="160"/>
                        </Array>
                    </mxGeometry>
                </mxCell>
                <mxCell id="4" value="L, 0, 4, 1" style="shape=hexagon;perimeter=hexagonPerimeter2;whiteSpace=wrap;html=1;fixedSize=1;" parent="1" vertex="1">
                    <mxGeometry x="255" y="180" width="120" height="80" as="geometry"/>
                </mxCell>
                <mxCell id="9" value="" style="edgeStyle=none;html=1;" parent="1" source="5" target="6" edge="1">
                    <mxGeometry relative="1" as="geometry"/>
                </mxCell>
                <mxCell id="11" style="edgeStyle=none;html=1;exitX=1;exitY=0.5;exitDx=0;exitDy=0;entryX=0;entryY=0.5;entryDx=0;entryDy=0;" parent="1" source="5" target="4" edge="1">
                    <mxGeometry relative="1" as="geometry">
                        <Array as="points">
                            <mxPoint x="410" y="320"/>
                            <mxPoint x="410" y="480"/>
                            <mxPoint x="170" y="480"/>
                            <mxPoint x="170" y="220"/>
                        </Array>
                    </mxGeometry>
                </mxCell>
                <mxCell id="5" value="C, 0, 1, 1" style="shape=hexagon;perimeter=hexagonPerimeter2;whiteSpace=wrap;html=1;fixedSize=1;" parent="1" vertex="1">
                    <mxGeometry x="255" y="280" width="120" height="80" as="geometry"/>
                </mxCell>
                <mxCell id="10" style="edgeStyle=none;html=1;exitX=0;exitY=0.5;exitDx=0;exitDy=0;entryX=0;entryY=0.5;entryDx=0;entryDy=0;" parent="1" source="6" target="5" edge="1">
                    <mxGeometry relative="1" as="geometry">
                        <Array as="points">
                            <mxPoint x="210" y="420"/>
                            <mxPoint x="210" y="320"/>
                        </Array>
                    </mxGeometry>
                </mxCell>
                <mxCell id="6" value="M[L][C]" style="html=1;strokeWidth=2;shape=manualInput;whiteSpace=wrap;rounded=1;size=26;arcSize=11;" parent="1" vertex="1">
                    <mxGeometry x="265" y="390" width="100" height="60" as="geometry"/>
                </mxCell>
                <mxCell id="15" value="" style="edgeStyle=none;html=1;" edge="1" parent="1" source="12" target="14">
                    <mxGeometry relative="1" as="geometry"/>
                </mxCell>
                <mxCell id="20" style="edgeStyle=none;html=1;exitX=1;exitY=0.5;exitDx=0;exitDy=0;entryX=0.5;entryY=0;entryDx=0;entryDy=0;" edge="1" parent="1" source="12" target="17">
                    <mxGeometry relative="1" as="geometry">
                        <Array as="points">
                            <mxPoint x="690" y="220"/>
                            <mxPoint x="690" y="360"/>
                            <mxPoint x="620" y="360"/>
                            <mxPoint x="550" y="360"/>
                        </Array>
                    </mxGeometry>
                </mxCell>
                <mxCell id="12" value="L, 0, 4, 1" style="shape=hexagon;perimeter=hexagonPerimeter2;whiteSpace=wrap;html=1;fixedSize=1;" parent="1" vertex="1">
                    <mxGeometry x="490" y="180" width="120" height="80" as="geometry"/>
                </mxCell>
                <mxCell id="19" style="edgeStyle=none;html=1;exitX=0;exitY=0.5;exitDx=0;exitDy=0;entryX=0;entryY=0.5;entryDx=0;entryDy=0;" edge="1" parent="1" source="14" target="12">
                    <mxGeometry relative="1" as="geometry">
                        <Array as="points">
                            <mxPoint x="430" y="315"/>
                            <mxPoint x="430" y="220"/>
                        </Array>
                    </mxGeometry>
                </mxCell>
                <mxCell id="14" value="M[L][2] &lt;font face=&quot;Cascadia Code&quot;&gt;&amp;lt;- (&lt;/font&gt;M[L][2] + M[L][2] ) / 2" style="rounded=1;whiteSpace=wrap;html=1;absoluteArcSize=1;arcSize=14;strokeWidth=2;" parent="1" vertex="1">
                    <mxGeometry x="450" y="290" width="200" height="50" as="geometry"/>
                </mxCell>
                <mxCell id="22" value="" style="edgeStyle=none;html=1;" edge="1" parent="1" source="17" target="21">
                    <mxGeometry relative="1" as="geometry"/>
                </mxCell>
                <mxCell id="27" style="edgeStyle=orthogonalEdgeStyle;html=1;exitX=0.5;exitY=1;exitDx=0;exitDy=0;entryX=0.728;entryY=0.011;entryDx=0;entryDy=0;entryPerimeter=0;" edge="1" parent="1" source="17" target="24">
                    <mxGeometry relative="1" as="geometry"/>
                </mxCell>
                <mxCell id="17" value="L, 0, 4, 1" style="shape=hexagon;perimeter=hexagonPerimeter2;whiteSpace=wrap;html=1;fixedSize=1;" vertex="1" parent="1">
                    <mxGeometry x="490" y="380" width="120" height="80" as="geometry"/>
                </mxCell>
                <mxCell id="21" value="fim" style="strokeWidth=2;html=1;shape=mxgraph.flowchart.start_1;whiteSpace=wrap;" vertex="1" parent="1">
                    <mxGeometry x="630" y="390" width="100" height="60" as="geometry"/>
                </mxCell>
                <mxCell id="26" style="edgeStyle=none;html=1;exitX=0;exitY=0.5;exitDx=0;exitDy=0;exitPerimeter=0;entryX=0;entryY=0.5;entryDx=0;entryDy=0;" edge="1" parent="1" source="24" target="17">
                    <mxGeometry relative="1" as="geometry">
                        <Array as="points">
                            <mxPoint x="80" y="625"/>
                            <mxPoint x="80" y="520"/>
                            <mxPoint x="390" y="520"/>
                            <mxPoint x="390" y="490"/>
                            <mxPoint x="440" y="490"/>
                            <mxPoint x="440" y="420"/>
                        </Array>
                    </mxGeometry>
                </mxCell>
                <mxCell id="24" value="&lt;div&gt;printf(&quot;__________\n|Aluno: %d|\n----------\n_____________________________________\n&quot;, l+1);&lt;/div&gt;&lt;div&gt;printf(&quot;|Nota1: %4.1f|&quot;, matriz[l][0]);&lt;/div&gt;&lt;div&gt;printf(&quot;Nota2: %4.1f|&quot;, matriz[l][1]);&lt;/div&gt;&lt;div&gt;printf(&quot;Media: %4.1f|\n_____________________________________\n&quot;, matriz[l][2]);&lt;/div&gt;" style="strokeWidth=2;html=1;shape=mxgraph.flowchart.display;whiteSpace=wrap;" vertex="1" parent="1">
                    <mxGeometry x="110" y="530" width="605" height="190" as="geometry"/>
                </mxCell>
            </root>
        </mxGraphModel>
    </diagram>
</mxfile>